<svg width="42" height="42" viewBox="0 0 42 42" fill="none" xmlns="http://www.w3.org/2000/svg">
<path d="M28.875 0C21.63 0 15.75 5.82146 15.75 12.9943C15.75 13.826 15.75 14.6576 15.9075 15.4373L0 31.1864V41.5819H15.75V31.1864H26.25V25.9887L26.4075 25.8327C27.195 25.9887 28.035 25.9887 28.875 25.9887C36.12 25.9887 42 20.1672 42 12.9943C42 5.82146 36.12 0 28.875 0ZM31.5 5.19774C34.3875 5.19774 36.75 7.53672 36.75 10.3955C36.75 13.2542 34.3875 15.5932 31.5 15.5932C28.6125 15.5932 26.25 13.2542 26.25 10.3955C26.25 7.53672 28.6125 5.19774 31.5 5.19774Z" fill="black"/>
</svg>
