<svg width="90" height="90" viewBox="0 0 90 90" fill="none" xmlns="http://www.w3.org/2000/svg">
<path d="M39.389 0L33.7781 13.3541C32.6559 13.6908 31.6459 14.2519 30.6359 14.813L17.2818 9.20199L9.20199 17.2818L14.813 30.6359C14.2519 31.7581 13.803 32.6559 13.3541 33.7781L0 39.389V50.611L13.3541 56.2219C13.803 57.3441 14.2519 58.2419 14.813 59.3641L9.20199 72.7182L17.2818 80.798L30.6359 75.187C31.6459 75.6359 32.6559 76.197 33.7781 76.6459L39.389 90H50.611L56.2219 76.6459C57.2319 76.197 58.3541 75.7481 59.3641 75.187L72.7182 80.798L80.798 72.7182L75.187 59.3641C75.6359 58.3541 76.197 57.2319 76.6459 56.2219L90 50.611V39.389L76.6459 33.7781C76.3092 32.7681 75.7481 31.6459 75.187 30.6359L80.798 17.2818L72.7182 9.20199L59.3641 14.813C58.3541 14.3641 57.2319 13.803 56.2219 13.3541L50.611 0L39.389 0ZM45 28.0549C54.3142 28.0549 61.8329 35.5736 61.8329 44.8878C61.8329 54.202 54.3142 61.7207 45 61.7207C35.6858 61.7207 28.1671 54.202 28.1671 44.8878C28.1671 35.5736 35.6858 28.0549 45 28.0549Z" fill="#C2B7A7"/>
</svg>
