<svg width="24" height="25" viewBox="0 0 24 25" fill="none" xmlns="http://www.w3.org/2000/svg">
<path d="M10.4058 0.120882C4.66774 0.120882 0 4.83106 0 10.6213C0 16.4115 4.66774 21.1217 10.4058 21.1217C12.1599 21.1217 13.8843 20.7016 15.3411 19.8916C15.4578 20.0333 15.5872 20.1639 15.7276 20.2816L18.7007 23.2817C18.9752 23.5935 19.31 23.8453 19.6844 24.0217C20.0589 24.1981 20.4651 24.2955 20.8782 24.3077C21.2913 24.32 21.7025 24.247 22.0866 24.0931C22.4707 23.9391 22.8196 23.7077 23.1118 23.4128C23.404 23.1179 23.6334 22.7659 23.7859 22.3783C23.9385 21.9907 24.0108 21.5757 23.9987 21.1589C23.9865 20.7421 23.8901 20.3321 23.7152 19.9543C23.5404 19.5764 23.2908 19.2386 22.9819 18.9616L20.0089 15.9615C19.864 15.8153 19.7046 15.6846 19.5332 15.5715C20.3359 14.1014 20.8413 12.3913 20.8413 10.5913C20.8413 4.80106 16.1736 0.0908813 10.4355 0.0908813L10.4058 0.120882ZM10.4058 3.12099C14.5384 3.12099 17.8385 6.45112 17.8385 10.6213C17.8385 12.6013 17.125 14.4314 15.8763 15.7815C15.8465 15.8115 15.8168 15.8415 15.7871 15.8715C15.6466 15.9892 15.5173 16.1198 15.4006 16.2615C14.0924 17.4615 12.3086 18.1516 10.3761 18.1516C6.24348 18.1516 2.94335 14.8214 2.94335 10.6513C2.94335 6.48112 6.24348 3.151 10.3761 3.151L10.4058 3.12099Z" fill="#C77605"/>
</svg>
